<?xml version="1.0" standalone="no"?>
<!DOCTYPE svg PUBLIC "-//W3C//DTD SVG 20010904//EN"
 "http://www.w3.org/TR/2001/REC-SVG-20010904/DTD/svg10.dtd">
<svg version="1.0" xmlns="http://www.w3.org/2000/svg"
 width="320.000000pt" height="320.000000pt" viewBox="0 0 320.000000 320.000000"
 preserveAspectRatio="xMidYMid meet">
<metadata>
Created by potrace 1.14, written by Peter Selinger 2001-2017
</metadata>
<g transform="translate(0.000000,320.000000) scale(0.100000,-0.100000)"
fill="#000000" stroke="none">
<path d="M1915 3129 c-23 -43 -76 -90 -144 -127 l-58 -31 -15 38 c-9 22 -25
44 -35 50 -22 11 -39 -1 -83 -62 -14 -19 -47 -51 -75 -70 -46 -32 -53 -34 -75
-22 -14 7 -27 12 -30 10 -3 -1 -27 -6 -54 -9 -27 -4 -53 -9 -56 -11 -4 -2 -21
-7 -38 -10 -18 -3 -70 -18 -118 -34 l-86 -29 -19 32 c-20 33 -59 151 -59 180
0 29 -54 76 -80 69 -70 -18 -119 -214 -96 -384 4 -34 2 -37 -64 -85 -38 -27
-69 -55 -70 -61 0 -7 -4 -13 -10 -13 -28 0 -227 -237 -280 -333 -56 -102 -121
-254 -135 -313 -2 -10 -11 -48 -20 -84 -25 -99 -30 -161 -30 -335 1 -157 6
-218 24 -282 5 -18 8 -33 6 -33 -3 0 0 -11 5 -25 5 -14 12 -36 14 -48 7 -39
57 -170 89 -232 28 -56 105 -184 117 -195 3 -3 18 -23 34 -45 54 -74 231 -240
324 -303 170 -116 386 -202 567 -227 28 -4 61 -9 75 -11 36 -6 280 -6 315 0
17 3 52 8 79 11 27 3 52 7 56 10 3 2 22 7 41 10 53 9 173 46 187 57 6 6 12 8
12 5 0 -13 189 89 275 147 90 62 252 213 317 296 60 78 115 167 153 247 60
127 67 145 81 198 2 6 12 43 23 83 10 40 19 76 19 80 1 4 4 30 8 57 23 169 19
333 -12 490 -17 87 -54 211 -81 272 -9 21 -17 40 -18 43 0 3 -21 43 -47 90
-43 80 -124 196 -172 248 -94 103 -181 181 -248 224 -22 15 -26 22 -19 45 8
31 6 195 -3 232 -11 46 -37 116 -49 132 -21 28 -54 40 -80 30 -24 -9 -42 -44
-53 -106 -8 -43 -43 -129 -64 -153 l-19 -22 -55 26 c-66 31 -69 35 -57 67 27
71 17 133 -34 208 -33 47 -59 50 -80 8z"/>
</g>
</svg>
